<svg width="300" height="58" viewBox="0 0 300 58" fill="none" xmlns="http://www.w3.org/2000/svg">
<path d="M103.887 48.1141C100.239 51.4895 96.0293 53.1773 91.2562 53.1773C88.1042 53.1773 85.1323 52.5922 82.3405 51.422C79.5487 50.2069 77.0946 48.5191 74.9782 46.3588C72.9069 44.1985 71.2633 41.6106 70.0476 38.5952C68.8318 35.5348 68.2239 32.1818 68.2239 28.5362C68.2239 25.2508 68.8318 22.1453 70.0476 19.2199C71.2633 16.2945 72.9294 13.7516 75.0458 11.5913C77.2072 9.43101 79.7513 7.72076 82.6782 6.46058C85.6051 5.2004 88.7571 4.57031 92.1343 4.57031C96.5921 4.57031 100.487 5.51545 103.819 7.40572C107.151 9.25098 109.651 11.7938 111.317 15.0343L103.076 21.2452C101.996 19.0849 100.42 17.4197 98.3483 16.2495C96.322 15.0343 94.1155 14.4267 91.729 14.4267C89.8828 14.4267 88.1942 14.8093 86.6632 15.5744C85.1773 16.2945 83.894 17.3296 82.8133 18.6798C81.7326 19.985 80.8995 21.5152 80.3142 23.2705C79.7288 25.0257 79.4361 26.916 79.4361 28.9413C79.4361 31.0116 79.7513 32.9244 80.3817 34.6796C81.0121 36.4349 81.8902 37.9651 83.0159 39.2703C84.1416 40.5305 85.47 41.5206 87.001 42.2407C88.577 42.9608 90.3106 43.3209 92.2018 43.3209C96.5246 43.3209 100.42 41.3181 103.887 37.3125V35.8273H94.5658V27.7936H113.073V52.8397H103.887V48.1141Z" fill="white"/>
<path d="M131.473 25.4308V52.8397H120.396V4.90786H129.041L151.398 33.0594V4.90786H162.475V52.8397H153.56L131.473 25.4308Z" fill="white"/>
<path d="M187.722 53.5148C184.751 53.5148 182.071 53.0423 179.685 52.0971C177.343 51.107 175.34 49.7793 173.673 48.1141C172.052 46.4488 170.814 44.536 169.959 42.3757C169.103 40.1704 168.675 37.8751 168.675 35.4897C168.675 32.9244 169.103 30.5165 169.959 28.2662C170.814 25.9709 172.052 23.9681 173.673 22.2578C175.294 20.5476 177.276 19.1974 179.617 18.2073C182.004 17.2171 184.706 16.7221 187.722 16.7221C190.739 16.7221 193.419 17.2171 195.76 18.2073C198.102 19.1974 200.083 20.5476 201.704 22.2578C203.325 23.9231 204.541 25.8584 205.351 28.0637C206.207 30.269 206.635 32.5868 206.635 35.0172C206.635 35.6473 206.612 36.2774 206.567 36.9074C206.522 37.4925 206.455 38.0101 206.364 38.4602H180.158C180.338 40.8455 181.193 42.6683 182.724 43.9285C184.3 45.1436 186.079 45.7512 188.06 45.7512C189.636 45.7512 191.145 45.3687 192.586 44.6035C194.072 43.8384 195.062 42.8033 195.558 41.4981L204.743 44.0635C203.348 46.8539 201.186 49.1267 198.259 50.882C195.332 52.6372 191.82 53.5148 187.722 53.5148ZM195.22 31.7767C194.995 29.5264 194.184 27.7486 192.788 26.4434C191.392 25.1383 189.659 24.4857 187.587 24.4857C185.471 24.4857 183.715 25.1608 182.319 26.511C180.968 27.8161 180.18 29.5714 179.955 31.7767H195.22Z" fill="white"/>
<path d="M243.548 52.8397L237.807 34.2746L231.998 52.8397H220.313L208.223 17.3972H219.368L226.662 40.0129L232.741 17.3972H242.873L248.952 40.0129L256.246 17.3972H267.391L255.301 52.8397H243.548Z" fill="white"/>
<path d="M285.472 53.5148C282.455 53.5148 279.483 53.0423 276.556 52.0971C273.629 51.107 271.153 49.6893 269.127 47.844L272.977 41.2281C275.138 42.7133 277.232 43.8609 279.258 44.6711C281.329 45.4812 283.311 45.8862 285.202 45.8862C286.598 45.8862 287.679 45.6387 288.444 45.1436C289.21 44.6486 289.592 43.9285 289.592 42.9833C289.592 42.0382 289.097 41.2956 288.106 40.7555C287.161 40.1704 285.472 39.5628 283.041 38.9327C280.654 38.2576 278.628 37.605 276.962 36.975C275.341 36.3449 274.012 35.6473 272.977 34.8822C271.941 34.117 271.198 33.2394 270.748 32.2493C270.297 31.2591 270.072 30.089 270.072 28.7388C270.072 26.9385 270.432 25.2958 271.153 23.8106C271.873 22.3254 272.864 21.0652 274.125 20.03C275.386 18.9949 276.872 18.1848 278.583 17.5997C280.339 17.0146 282.23 16.7221 284.256 16.7221C286.913 16.7221 289.39 17.0821 291.686 17.8022C294.028 18.5223 296.279 19.8275 298.44 21.7178L294.253 28.1987C292.226 26.8035 290.425 25.7909 288.849 25.1608C287.273 24.5307 285.742 24.2156 284.256 24.2156C283.086 24.2156 282.095 24.4632 281.284 24.9582C280.474 25.4083 280.069 26.1509 280.069 27.1861C280.069 28.1762 280.496 28.9188 281.352 29.4139C282.253 29.9089 283.896 30.449 286.283 31.0341C288.804 31.7092 290.921 32.3843 292.632 33.0594C294.388 33.7345 295.806 34.4996 296.887 35.3547C297.968 36.1648 298.756 37.11 299.251 38.1901C299.746 39.2703 299.994 40.553 299.994 42.0382C299.994 45.5487 298.688 48.3391 296.076 50.4094C293.465 52.4797 289.93 53.5148 285.472 53.5148Z" fill="white"/>
<path fill-rule="evenodd" clip-rule="evenodd" d="M0.00135819 19.8574H0V38.5656H0.000334142C0.000111479 38.6014 0 38.6371 0 38.6729C0 49.039 9.35922 57.4424 20.9044 57.4424C32.4496 57.4424 41.8088 49.039 41.8088 38.6729C41.8088 38.6371 41.8087 38.6014 41.8085 38.5656H41.8088V19.8574H41.8074C41.6784 30.0653 32.3692 38.3047 20.9044 38.3047C9.43959 38.3047 0.13041 30.0653 0.00135819 19.8574Z" fill="url(#paint0_linear)"/>
<path fill-rule="evenodd" clip-rule="evenodd" d="M20.9044 38.4233C32.4496 38.4233 41.8088 30.0114 41.8088 19.6345C41.8088 17.4093 41.3784 15.2745 40.5885 13.2936H27.9592C28.2541 13.114 33.2333 8.58889 35.6861 6.34879C31.9031 2.94869 26.677 0.845703 20.9044 0.845703C9.35922 0.845703 0 9.25762 0 19.6345C0 30.0114 9.35922 38.4233 20.9044 38.4233ZM10.9265 19.6347C10.9265 14.6823 15.3935 10.6673 20.9036 10.6673C23.6587 10.6673 26.153 11.6711 27.9585 13.2939L20.9036 19.6347C20.2385 20.019 17.9739 22.179 16.9247 23.211H30.0557C28.5188 26.3838 24.9994 28.6021 20.9036 28.6021C15.3935 28.6021 10.9265 24.5871 10.9265 19.6347Z" fill="url(#paint1_linear)"/>
<defs>
<linearGradient id="paint0_linear" x1="20.9919" y1="57.3831" x2="20.7863" y2="24.8471" gradientUnits="userSpaceOnUse">
<stop stop-color="#EDEDED"/>
<stop offset="1" stop-color="#E7E7E7"/>
</linearGradient>
<linearGradient id="paint1_linear" x1="20.913" y1="0.846487" x2="16.9832" y2="37.9989" gradientUnits="userSpaceOnUse">
<stop stop-color="white"/>
<stop offset="1" stop-color="#EDEDED"/>
</linearGradient>
</defs>
</svg>
